<svg xmlns="http://www.w3.org/2000/svg" width="64" height="64" viewBox="0 0 64 64">
  <!-- Back folder (offset up-left) — 50% opacity for depth -->
  <path fill="#000000" fill-opacity="0.5"
    d="M12 14c0-1.66 1.34-3 3-3h8.8l2.4 2.5c.4.4.9.6 1.45.6H40c1.66 0 3 1.34 3 3v7.2H15c-2.76 0-5 2.24-5 5V17c0-1.66 1.34-3 3-3h-1z"/>
  <path fill="#000000" fill-opacity="0.5"
    d="M10 17c0-1.66 1.34-3 3-3h8.8l2.4 2.5c.4.4.9.6 1.45.6H40c1.66 0 3 1.34 3 3v5H12.5c-1.38 0-2.5 1.12-2.5 2.5V17z"/>

  <!-- Front folder -->
  <path fill="#000000"
    d="M8 27c0-1.66 1.34-3 3-3h11.5l2.6 2.8c.35.38.85.6 1.37.6H50c1.66 0 3 1.34 3 3v23c0 1.66-1.34 3-3 3H11c-1.66 0-3-1.34-3-3V27z"/>
  <!-- Tab bar on front folder -->
  <path fill="#000000"
    d="M8 27c0-1.66 1.34-3 3-3h11.5l2.6 2.8c.35.38.85.6 1.37.6H50c.55 0 1.06.15 1.5.4v3.1H8V27z"/>

  <!-- Document lines (transparent cutouts) -->
  <rect x="16" y="35" width="24" height="3.4" rx="1.7" fill="#FFFFFF"/>
  <rect x="16" y="41.5" width="18.5" height="3.4" rx="1.7" fill="#FFFFFF"/>
  <rect x="16" y="48" width="13" height="3.4" rx="1.7" fill="#FFFFFF"/>
</svg>
